<?xml version="1.0" encoding="UTF-8" standalone="no"?>
<!-- Created with Inkscape (http://www.inkscape.org/) -->

<svg
   xmlns:dc="http://purl.org/dc/elements/1.1/"
   xmlns:cc="http://creativecommons.org/ns#"
   xmlns:rdf="http://www.w3.org/1999/02/22-rdf-syntax-ns#"
   xmlns:svg="http://www.w3.org/2000/svg"
   xmlns="http://www.w3.org/2000/svg"
   xmlns:sodipodi="http://sodipodi.sourceforge.net/DTD/sodipodi-0.dtd"
   xmlns:inkscape="http://www.inkscape.org/namespaces/inkscape"
   width="1830mm"
   height="404mm"
   viewBox="0 0 1830 404"
   version="1.1"
   id="svg8"
   inkscape:version="0.92.3 (2405546, 2018-03-11)"
   sodipodi:docname="Finbyz_Original_Wide.svg">
  <defs
     id="defs2">
    <clipPath
       id="clipPath134"
       clipPathUnits="userSpaceOnUse">
      <path
         inkscape:connector-curvature="0"
         id="path132"
         d="m 3715.36,6489.89 c -35.22,195.56 -319.39,194.33 -403.18,71.66 -83.8,-122.66 44.94,-291.48 207.68,-278.12 0.25,0.03 0.45,0.06 0.71,0.07 -73.23,0.4 -110.75,52 -122.99,90.13 -18.73,74.48 8.44,113.08 19.66,131.12 28.16,51.79 109.11,39.03 125.69,31.3 18.21,-8.5 43.7,-8.5 31.59,1.23 -8.54,23.06 20.64,15.77 -4.87,35.21 -20.66,17 -61.95,35.21 -15.8,35.21 81.35,-2.42 133.58,-80.15 143.28,-104.44 9.73,-24.29 21.9,-35.22 18.23,-13.37 z" />
    </clipPath>
    <linearGradient
       id="linearGradient146"
       spreadMethod="pad"
       gradientTransform="matrix(145.733,217.788,217.788,-145.733,3396.72,6345.47)"
       gradientUnits="userSpaceOnUse"
       y2="0"
       x2="1"
       y1="0"
       x1="0">
      <stop
         id="stop136"
         offset="0"
         style="stop-opacity:1;stop-color:#f89c0e" />
      <stop
         id="stop138"
         offset="0.10989"
         style="stop-opacity:1;stop-color:#f89c0e" />
      <stop
         id="stop140"
         offset="0.428571"
         style="stop-opacity:1;stop-color:#fcd205" />
      <stop
         id="stop142"
         offset="0.835165"
         style="stop-opacity:1;stop-color:#f79110" />
      <stop
         id="stop144"
         offset="1"
         style="stop-opacity:1;stop-color:#f79110" />
    </linearGradient>
    <clipPath
       id="clipPath112"
       clipPathUnits="userSpaceOnUse">
      <path
         inkscape:connector-curvature="0"
         id="path110"
         d="m 3096.59,6231.38 c -1.5,4.14 -2.91,8.13 -4.27,11.98 -37.63,-20.66 -57.05,-99.59 -21.83,-153.04 -24.3,-6.07 49.8,-187.03 357.05,-202.83 88.17,-4.51 177.23,9.48 261.92,34.09 -414.56,-76.98 -568.1,168.49 -592.87,309.8 z" />
    </clipPath>
    <linearGradient
       id="linearGradient124"
       spreadMethod="pad"
       gradientTransform="matrix(129.899,-288.376,-288.376,-129.899,3276.79,6221.6)"
       gradientUnits="userSpaceOnUse"
       y2="0"
       x2="1"
       y1="0"
       x1="0">
      <stop
         id="stop114"
         offset="0"
         style="stop-opacity:1;stop-color:#5ac1ef" />
      <stop
         id="stop116"
         offset="0.10989"
         style="stop-opacity:1;stop-color:#5ac1ef" />
      <stop
         id="stop118"
         offset="0.428571"
         style="stop-opacity:1;stop-color:#73d2f6" />
      <stop
         id="stop120"
         offset="0.835165"
         style="stop-opacity:1;stop-color:#5ac1ef" />
      <stop
         id="stop122"
         offset="1"
         style="stop-opacity:1;stop-color:#5ac1ef" />
    </linearGradient>
    <clipPath
       id="clipPath90"
       clipPathUnits="userSpaceOnUse">
      <path
         inkscape:connector-curvature="0"
         id="path88"
         d="m 3349.8,6093.96 c 12.17,1.22 12.17,7.28 24.3,2.43 14.59,-4.85 142.09,-35.21 293.89,-3.64 20.98,4.38 41.6,9.71 61.76,15.74 -326.53,-75.24 -490.45,161.77 -490.53,295.37 -3.88,16.98 -6.36,35.1 -7.2,54.46 -24.3,-13.36 -31.57,-85.01 -65.6,-116.59 -27.9,-41.3 -18.21,-185.84 183.38,-247.77 z" />
    </clipPath>
    <linearGradient
       id="linearGradient102"
       spreadMethod="pad"
       gradientTransform="matrix(-335.192,228.319,228.319,335.192,3474.79,6139.91)"
       gradientUnits="userSpaceOnUse"
       y2="0"
       x2="1"
       y1="0"
       x1="0">
      <stop
         id="stop92"
         offset="0"
         style="stop-opacity:1;stop-color:#8cd024" />
      <stop
         id="stop94"
         offset="0.10989"
         style="stop-opacity:1;stop-color:#8cd024" />
      <stop
         id="stop96"
         offset="0.428571"
         style="stop-opacity:1;stop-color:#99d420" />
      <stop
         id="stop98"
         offset="0.835165"
         style="stop-opacity:1;stop-color:#73c82c" />
      <stop
         id="stop100"
         offset="1"
         style="stop-opacity:1;stop-color:#73c82c" />
    </linearGradient>
    <clipPath
       id="clipPath70"
       clipPathUnits="userSpaceOnUse">
      <path
         inkscape:connector-curvature="0"
         id="path68"
         d="m 3574.52,6537.28 c 12.11,-9.73 -13.38,-9.73 -31.59,-1.23 -18.21,8.51 -114.15,23.08 -132.37,-48.59 -18.24,-71.64 162.73,-65.58 178.51,6.09 8.51,36.42 12.15,35.22 30.33,29.14 20.64,-6.08 43.73,-23.08 43.73,-64.37 47.36,-21.85 19.45,-161.53 -143.27,-174.89 -162.74,-13.36 -291.48,155.46 -207.68,278.12 83.79,122.67 367.96,123.9 403.18,-71.66 3.67,-21.85 -8.5,-10.92 -18.23,13.37 -9.7,24.29 -61.93,102.02 -143.28,104.44 -46.15,0 -4.86,-18.21 15.8,-35.21 25.51,-19.44 -3.67,-12.15 4.87,-35.21 z" />
    </clipPath>
    <linearGradient
       id="linearGradient80"
       spreadMethod="pad"
       gradientTransform="matrix(295.613,121.06,121.06,-295.613,3352.69,6405.17)"
       gradientUnits="userSpaceOnUse"
       y2="0"
       x2="1"
       y1="0"
       x1="0">
      <stop
         id="stop72-3"
         offset="0"
         style="stop-opacity:1;stop-color:#ed1c24" />
      <stop
         id="stop74-3"
         offset="0.0934066"
         style="stop-opacity:1;stop-color:#ed1c24" />
      <stop
         id="stop76-9"
         offset="0.373626"
         style="stop-opacity:1;stop-color:#f36717" />
      <stop
         id="stop78-4"
         offset="1"
         style="stop-opacity:1;stop-color:#ef3220" />
    </linearGradient>
    <clipPath
       id="clipPath50"
       clipPathUnits="userSpaceOnUse">
      <path
         inkscape:connector-curvature="0"
         id="path48"
         d="m 3092.32,6243.36 c -37.63,-20.66 -57.05,-99.59 -21.83,-153.04 -24.3,-6.07 49.8,-187.03 357.05,-202.83 307.25,-15.78 477.52,104.34 583.21,205.15 21.85,19.44 33.04,33.68 -36.19,-8.84 -69.2,-42.48 -100.39,-61.1 -105.24,-52.61 -2.42,9.73 41.58,22.01 33.07,30.52 -8.5,8.5 -16.97,-3.64 -8.5,8.5 57.09,36.42 136.31,84.36 177.62,145.09 35.21,51 -6.93,0.02 -31.23,-18.19 -23.11,-18.23 -8.52,13.35 -29.18,-3.66 -20.63,-17.01 -90.14,-76.63 -246.82,-140.99 -156.66,-64.38 -353.72,-70.23 -521.34,18.43 -111.73,59.53 -134.81,127.54 -150.62,172.47 z" />
    </clipPath>
    <linearGradient
       id="linearGradient60"
       spreadMethod="pad"
       gradientTransform="matrix(149.229,224.939,224.939,-149.229,3360.04,5881.23)"
       gradientUnits="userSpaceOnUse"
       y2="0"
       x2="1"
       y1="0"
       x1="0">
      <stop
         id="stop52-2"
         offset="0"
         style="stop-opacity:1;stop-color:#2aabe8" />
      <stop
         id="stop54-7"
         offset="0.0934066"
         style="stop-opacity:1;stop-color:#2aabe8" />
      <stop
         id="stop56-1"
         offset="0.373626"
         style="stop-opacity:1;stop-color:#4dc6f4" />
      <stop
         id="stop58"
         offset="1"
         style="stop-opacity:1;stop-color:#2aabe8" />
    </linearGradient>
    <clipPath
       id="clipPath30"
       clipPathUnits="userSpaceOnUse">
      <path
         inkscape:connector-curvature="0"
         id="path28"
         d="m 3232.02,6458.32 c -24.3,-13.36 -31.57,-85.01 -65.6,-116.59 -27.9,-41.3 -18.21,-185.84 183.38,-247.77 12.17,1.22 12.17,7.28 24.3,2.43 14.59,-4.85 142.09,-35.21 293.89,-3.64 151.82,31.57 200.55,75.82 267.33,121.98 66.77,46.15 55.86,42.5 117.79,77.73 14.59,17 3.67,40.08 4.88,51.01 24.3,15.79 46.14,31.57 41.27,49.8 2.72,31.98 44.85,96.3 36.35,96.3 -30.68,-17.55 -20.88,-93 -309.94,-226.59 -280.83,-129.82 -581.52,-84 -593.65,195.34 z" />
    </clipPath>
    <linearGradient
       id="linearGradient40"
       spreadMethod="pad"
       gradientTransform="matrix(287.254,291.478,291.478,-287.254,3383.46,6113.14)"
       gradientUnits="userSpaceOnUse"
       y2="0"
       x2="1"
       y1="0"
       x1="0">
      <stop
         id="stop32-3"
         offset="0"
         style="stop-opacity:1;stop-color:#59c134" />
      <stop
         id="stop34-3"
         offset="0.0934066"
         style="stop-opacity:1;stop-color:#59c134" />
      <stop
         id="stop36"
         offset="0.373626"
         style="stop-opacity:1;stop-color:#8cd024" />
      <stop
         id="stop38"
         offset="1"
         style="stop-opacity:1;stop-color:#59c134" />
    </linearGradient>
  </defs>
  <sodipodi:namedview
     id="base"
     pagecolor="#ffffff"
     bordercolor="#666666"
     borderopacity="1.0"
     inkscape:pageopacity="0.0"
     inkscape:pageshadow="2"
     inkscape:zoom="0.12374369"
     inkscape:cx="3882.2898"
     inkscape:cy="999.05997"
     inkscape:document-units="mm"
     inkscape:current-layer="g1358"
     showgrid="false"
     inkscape:window-width="1920"
     inkscape:window-height="1001"
     inkscape:window-x="-9"
     inkscape:window-y="-9"
     inkscape:window-maximized="1" />
  <metadata
     id="metadata5">
    <rdf:RDF>
      <cc:Work
         rdf:about="">
        <dc:format>image/svg+xml</dc:format>
        <dc:type
           rdf:resource="http://purl.org/dc/dcmitype/StillImage" />
        <dc:title></dc:title>
      </cc:Work>
    </rdf:RDF>
  </metadata>
  <g
     inkscape:label="Layer 1"
     inkscape:groupmode="layer"
     id="layer1"
     transform="translate(0,107)">
    <g
       id="g1358"
       transform="translate(1019.3706,-127.05913)">
      <g
         id="g1386">
        <text
           id="Finbyz"
           x="-436.92297"
           y="337.68784"
           font-weight="700"
           style="font-style:normal;font-variant:normal;font-weight:700;font-stretch:normal;font-size:402.33203125px;line-height:1.25;font-family:'Times New Roman';-inkscape-font-specification:'Times New Roman, Bold';letter-spacing:0;word-spacing:0;fill:#a1cc3a;fill-opacity:1;stroke:none;stroke-width:10.0583992"
           font-size="1520.625"
           letter-spacing="0"
           word-spacing="0"
           xml:space="preserve"
           font-style="normal"
           font-variant="normal"
           font-stretch="normal">         <tspan
   id="tspan974"
   x="-436.92297"
   y="337.68784"
   font-variant="normal"
   font-stretch="normal"
   font-style="normal"
   style="font-style:normal;font-variant:normal;font-weight:700;font-stretch:normal;font-family:'Times New Roman';-inkscape-font-specification:'Times New Roman, Bold';fill:#a1cc3a;fill-opacity:1;stroke-width:10.0583992"
   font-weight="700">FinByz</tspan> </text>
        <g
           id="g3198"
           transform="matrix(14.835355,0,0,14.836483,647.19728,-691.29757)">
          <path
             d="m -73.702149,53.801118 c -1.083027,0.619125 -0.7366,3.280481 -10.933993,7.993592 -9.184569,4.246033 -18.966748,3.160536 -20.685478,-4.873272 -7.1e-4,-0.03175 -0.004,-0.06526 -0.004,-0.09666 -0.13652,-0.599017 -0.22401,-1.238603 -0.254,-1.921228 -0.85654,0.470958 -1.11337,2.998964 -2.31387,4.113036 -0.9846,1.456973 -0.64241,6.555317 6.46959,8.74007 0.42863,-0.04198 0.42863,-0.256823 0.8569,-0.08467 0.5147,0.171097 5.012618,1.24213 10.367433,0.128411 5.356225,-1.114778 7.07531,-2.675114 9.43116,-4.303536 2.35585,-1.628069 1.970617,-1.499305 4.155369,-2.742494 0.514704,-0.599723 0.129471,-1.413581 0.172156,-1.79952 0.85725,-0.556683 1.627717,-1.113719 1.456619,-1.756833 0.09525,-1.127831 1.581504,-3.396897 1.281641,-3.396897"
             style="fill:#26b144;fill-opacity:1;fill-rule:nonzero;stroke:none;stroke-width:0.03527778"
             id="path18"
             inkscape:connector-curvature="0" />
          <path
             d="m -77.065177,64.118457 c -0.815269,0.642762 -0.300567,-0.470958 -1.029407,0.128764 -0.727427,0.600075 -3.180643,2.704042 -8.70726,4.97452 -5.527323,2.270125 -12.478456,2.477558 -18.392066,-0.650875 -3.63397,-1.935692 -4.60834,-4.124325 -5.17525,-5.696656 -0.048,-0.13335 -0.0938,-0.263172 -0.13759,-0.38735 -1.32785,0.728486 -2.01295,3.512608 -0.77082,5.398206 -0.85689,0.214841 1.75684,6.599061 12.596287,7.155392 0.392642,0.02045 0.785636,0.02998 1.178631,0.02998 10.091914,0.198967 15.80656,-3.843161 19.395016,-7.267222 0.771525,-0.684741 1.166635,-1.188155 -1.275291,0.311856 -2.441927,1.499658 -3.542242,2.155472 -3.71334,1.855964 -0.08537,-0.342195 1.46685,-0.776464 1.166638,-1.07562 -0.299863,-0.299861 -0.598665,0.128059 -0.299863,-0.299861 2.014008,-1.285875 4.808715,-2.976033 6.26604,-5.118805 1.242483,-1.79952 -0.245182,-0.0011 -1.101725,0.641702"
             style="fill:#0994dc;fill-opacity:1;fill-rule:nonzero;stroke:none;stroke-width:0.03527778"
             id="path20"
             inkscape:connector-curvature="0" />
          <path
             d="m -95.424792,61.07328 c 0.0095,-0.0011 0.01622,-0.0021 0.0254,-0.0028 -0.0019,0 -0.0032,0 -0.0053,0 5.722057,-0.481895 6.70419,-5.397148 5.034492,-6.166909 0,-1.45662 -0.81421,-2.056695 -1.542696,-2.271184 -0.64135,-0.214136 -0.770466,-0.256469 -1.069975,1.028348 -0.555979,2.528005 -6.940198,2.742141 -6.297437,0.214489 0.06985,-0.275873 0.1778,-0.509059 0.306211,-0.716845 0.03104,-0.05115 0.06315,-0.102658 0.09772,-0.14993 0.04269,-0.05821 0.08855,-0.112184 0.135114,-0.164395 0.0388,-0.04304 0.07549,-0.08678 0.116416,-0.126647 0.05009,-0.04833 0.104423,-0.09208 0.158045,-0.13582 0.04304,-0.03422 0.08396,-0.07091 0.128411,-0.102305 0.05891,-0.04127 0.121003,-0.0762 0.183092,-0.112536 0.04374,-0.02575 0.08643,-0.05468 0.131939,-0.07796 0.08008,-0.04057 0.163688,-0.07479 0.246944,-0.10795 0.07514,-0.02999 0.150636,-0.05609 0.227542,-0.08079 0.06738,-0.02117 0.134761,-0.0441 0.2032,-0.06138 0.05927,-0.01517 0.119239,-0.0254 0.178858,-0.03775 0.06033,-0.01199 0.119944,-0.02575 0.180975,-0.03528 0.06138,-0.0099 0.123472,-0.01658 0.185208,-0.02363 0.05821,-0.0067 0.116064,-0.01411 0.173567,-0.0187 0.06244,-0.0049 0.124178,-0.0074 0.185561,-0.01058 0.05645,-0.0021 0.112888,-0.0046 0.167921,-0.0053 0.06068,-7.15e-4 0.120299,0 0.180272,0.0011 0.05362,0.0014 0.107243,0.0028 0.159808,0.0053 0.05715,0.0028 0.113945,0.0064 0.169333,0.01058 0.0515,0.0042 0.102304,0.0088 0.152046,0.01411 0.05186,0.0056 0.103365,0.01094 0.152754,0.01764 0.04904,0.0067 0.0949,0.01376 0.141462,0.02117 0.04516,0.0074 0.09102,0.01446 0.13335,0.02258 0.04586,0.0085 0.0882,0.01799 0.130175,0.02716 0.03598,0.0081 0.07373,0.01588 0.10654,0.02399 0.0441,0.01129 0.0822,0.02258 0.12065,0.03387 0.02363,0.0074 0.05115,0.01411 0.07267,0.02152 0.0568,0.01834 0.105834,0.03704 0.143934,0.05468 0.642408,0.300214 1.541637,0.300214 1.114425,-0.04304 -0.301262,-0.813886 0.727438,-0.556358 -0.171794,-1.242511 -0.728133,-0.599369 -2.185458,-1.24213 -0.557387,-1.24213 2.869845,0.08572 4.712404,2.827866 5.054952,3.684411 0.3429,0.856897 0.772231,1.242836 0.64276,0.471664 -1.242483,-6.89857 -11.267368,-6.855178 -14.223296,-2.527653 -2.95663,4.326819 1.58539,10.282414 7.326138,9.811456"
             style="fill:#ed1c24;fill-opacity:1;fill-rule:nonzero;stroke:none;stroke-width:0.03527778"
             id="path22"
             inkscape:connector-curvature="0" />
          <g
             transform="matrix(0.03527778,0,0,-0.03527778,-219.90384,282.43251)"
             id="g24">
            <g
               id="g26"
               clip-path="url(#clipPath30)">
              <path
                 d="m 3232.02,6458.32 c -24.3,-13.36 -31.57,-85.01 -65.6,-116.59 -27.9,-41.3 -18.21,-185.84 183.38,-247.77 12.17,1.22 12.17,7.28 24.3,2.43 14.59,-4.85 142.09,-35.21 293.89,-3.64 151.82,31.57 200.55,75.82 267.33,121.98 66.77,46.15 55.86,42.5 117.79,77.73 14.59,17 3.67,40.08 4.88,51.01 24.3,15.79 46.14,31.57 41.27,49.8 2.72,31.98 44.85,96.3 36.35,96.3 -30.68,-17.55 -20.88,-93 -309.94,-226.59 -280.83,-129.82 -581.52,-84 -593.65,195.34"
                 style="fill:url(#linearGradient40);fill-opacity:1;fill-rule:nonzero;stroke:none"
                 id="path42"
                 inkscape:connector-curvature="0" />
            </g>
          </g>
          <g
             transform="matrix(0.03527778,0,0,-0.03527778,-219.90384,282.43251)"
             id="g44">
            <g
               id="g46"
               clip-path="url(#clipPath50)">
              <path
                 d="m 3092.32,6243.36 c -37.63,-20.66 -57.05,-99.59 -21.83,-153.04 -24.3,-6.07 49.8,-187.03 357.05,-202.83 307.25,-15.78 477.52,104.34 583.21,205.15 21.85,19.44 33.04,33.68 -36.19,-8.84 -69.2,-42.48 -100.39,-61.1 -105.24,-52.61 -2.42,9.73 41.58,22.01 33.07,30.52 -8.5,8.5 -16.97,-3.64 -8.5,8.5 57.09,36.42 136.31,84.36 177.62,145.09 35.21,51 -6.93,0.02 -31.23,-18.19 -23.11,-18.23 -8.52,13.35 -29.18,-3.66 -20.63,-17.01 -90.14,-76.63 -246.82,-140.99 -156.66,-64.38 -353.72,-70.23 -521.34,18.43 -111.73,59.53 -134.81,127.54 -150.62,172.47"
                 style="fill:url(#linearGradient60);fill-opacity:1;fill-rule:nonzero;stroke:none"
                 id="path62"
                 inkscape:connector-curvature="0" />
            </g>
          </g>
          <g
             transform="matrix(0.03527778,0,0,-0.03527778,-219.90384,282.43251)"
             id="g64">
            <g
               id="g66"
               clip-path="url(#clipPath70)">
              <path
                 d="m 3574.52,6537.28 c 12.11,-9.73 -13.38,-9.73 -31.59,-1.23 -18.21,8.51 -114.15,23.08 -132.37,-48.59 -18.24,-71.64 162.73,-65.58 178.51,6.09 8.51,36.42 12.15,35.22 30.33,29.14 20.64,-6.08 43.73,-23.08 43.73,-64.37 47.36,-21.85 19.45,-161.53 -143.27,-174.89 -162.74,-13.36 -291.48,155.46 -207.68,278.12 83.79,122.67 367.96,123.9 403.18,-71.66 3.67,-21.85 -8.5,-10.92 -18.23,13.37 -9.7,24.29 -61.93,102.02 -143.28,104.44 -46.15,0 -4.86,-18.21 15.8,-35.21 25.51,-19.44 -3.67,-12.15 4.87,-35.21"
                 style="fill:url(#linearGradient80);fill-opacity:1;fill-rule:nonzero;stroke:none"
                 id="path82"
                 inkscape:connector-curvature="0" />
            </g>
          </g>
          <g
             transform="matrix(0.03527778,0,0,-0.03527778,-219.90384,282.43251)"
             id="g84">
            <g
               id="g86"
               clip-path="url(#clipPath90)">
              <path
                 d="m 3349.8,6093.96 c 12.17,1.22 12.17,7.28 24.3,2.43 14.59,-4.85 142.09,-35.21 293.89,-3.64 20.98,4.38 41.6,9.71 61.76,15.74 -326.53,-75.24 -490.45,161.77 -490.53,295.37 -3.88,16.98 -6.36,35.1 -7.2,54.46 -24.3,-13.36 -31.57,-85.01 -65.6,-116.59 -27.9,-41.3 -18.21,-185.84 183.38,-247.77"
                 style="fill:url(#linearGradient102);fill-opacity:1;fill-rule:nonzero;stroke:none"
                 id="path104"
                 inkscape:connector-curvature="0" />
            </g>
          </g>
          <g
             transform="matrix(0.03527778,0,0,-0.03527778,-219.90384,282.43251)"
             id="g106">
            <g
               id="g108"
               clip-path="url(#clipPath112)">
              <path
                 d="m 3096.59,6231.38 c -1.5,4.14 -2.91,8.13 -4.27,11.98 -37.63,-20.66 -57.05,-99.59 -21.83,-153.04 -24.3,-6.07 49.8,-187.03 357.05,-202.83 88.17,-4.51 177.23,9.48 261.92,34.09 -414.56,-76.98 -568.1,168.49 -592.87,309.8"
                 style="fill:url(#linearGradient124);fill-opacity:1;fill-rule:nonzero;stroke:none"
                 id="path126"
                 inkscape:connector-curvature="0" />
            </g>
          </g>
          <g
             transform="matrix(0.03527778,0,0,-0.03527778,-219.90384,282.43251)"
             id="g128">
            <g
               id="g130"
               clip-path="url(#clipPath134)">
              <path
                 d="m 3715.36,6489.89 c -35.22,195.56 -319.39,194.33 -403.18,71.66 -83.8,-122.66 44.94,-291.48 207.68,-278.12 0.25,0.03 0.45,0.06 0.71,0.07 -73.23,0.4 -110.75,52 -122.99,90.13 -18.73,74.48 8.44,113.08 19.66,131.12 28.16,51.79 109.11,39.03 125.69,31.3 18.21,-8.5 43.7,-8.5 31.59,1.23 -8.54,23.06 20.64,15.77 -4.87,35.21 -20.66,17 -61.95,35.21 -15.8,35.21 81.35,-2.42 133.58,-80.15 143.28,-104.44 9.73,-24.29 21.9,-35.22 18.23,-13.37"
                 style="fill:url(#linearGradient146);fill-opacity:1;fill-rule:nonzero;stroke:none"
                 id="path148"
                 inkscape:connector-curvature="0" />
            </g>
          </g>
        </g>
      </g>
    </g>
  </g>
  <style
     type="text/css"
     id="style2">
        .Graphic_x0020_Style{fill:url(#SVGID_1_)}.Graphic_x0020_Style_x0020_2{fill:url(#SVGID_2_)}.Graphic_x0020_Style_x0020_3{fill:url(#SVGID_3_)}.Graphic_x0020_Style_x0020_4{fill:url(#SVGID_4_)}.Graphic_x0020_Style_x0020_5{fill:url(#SVGID_5_)}.Graphic_x0020_Style_x0020_6{fill:url(#SVGID_6_)}.logo_st0{fill:url(#Blue_x5F_Top_1_)}.logo_st1{fill:url(#Blue_x5F_Bottom_1_)}.logo_st2{fill:#2b93d1}.logo_st3{fill:#2c93d1}.logo_st4{fill:url(#Green_x5F_Top_1_)}.logo_st5{fill:url(#Green_x5F_Bottom_1_)}.logo_st6{fill:#28b24c}.logo_st7{fill:url(#Orange_x5F_Bottom_1_)}.logo_st8{fill:url(#Orange_x5F_Top_1_)}.logo_logo_st9{fill:#ec2227}
    </style>
</svg>
